Coordinates
version=1
nRows=7
nColumns=63
inDegrees=yes

Units are S.I. units (second, meters, Newtons, ...)
If the header above contains a line with 'inDegrees', this indicates whether rotational values are in degrees (yes) or radians (no).

endheader
time	pelvis_tilt	pelvis_list	pelvis_rotation	pelvis_tx	pelvis_ty	pelvis_tz	hip_flexion_r	hip_adduction_r	hip_rotation_r	knee_angle_r	knee_angle_r_beta	ankle_angle_r	subtalar_angle_r	mtp_angle_r	hip_flexion_l	hip_adduction_l	hip_rotation_l	knee_angle_l	knee_angle_l_beta	ankle_angle_l	subtalar_angle_l	mtp_angle_l	L5_S1_Flex_Ext	L5_S1_Lat_Bending	L5_S1_axial_rotation	L4_L5_Flex_Ext	L4_L5_Lat_Bending	L4_L5_axial_rotation	L3_L4_Flex_Ext	L3_L4_Lat_Bending	L3_L4_axial_rotation	L2_L3_Flex_Ext	L2_L3_Lat_Bending	L2_L3_axial_rotation	L1_L2_Flex_Ext	L1_L2_Lat_Bending	L1_L2_axial_rotation	L1_T12_Flex_Ext	L1_T12_Lat_Bending	L1_T12_axial_rotation	Abs_r3	Abs_r2	Abs_r1	Abs_t1	Abs_t2	neck_flexion	neck_bending	neck_rotation	arm_flex_r	arm_add_r	arm_rot_r	elbow_flex_r	pro_sup_r	wrist_flex_r	wrist_dev_r	arm_flex_l	arm_add_l	arm_rot_l	elbow_flex_l	pro_sup_l	wrist_flex_l	wrist_dev_l
     15.13333333	      4.27049294	      3.14339462	    183.23208660	     -1.11471847	      0.87405146	      0.82390740	     19.08304709	      0.90411070	    -28.89906044	     18.50452545	      0.32296490	     10.71998343	     15.72797069	      0.00000000	      8.96039423	     -6.45945046	     -1.80639517	     64.03161189	      1.11756245	     -0.27471742	    -19.05919278	      0.00000000	     -0.00053891	      0.37518865	     -0.92406018	     -0.00100081	      0.49900090	     -0.98181394	     -0.00088537	      0.91223367	     -0.98181394	     -0.00061592	      0.91223367	     -0.80855266	     -0.00050043	      0.76508469	     -0.75079890	     -0.00030793	      0.58116721	     -0.69304514	     -0.00384937	      4.24420901	     -5.13934552	      0.00000000	      0.00000000	      0.00000000	      0.00000000	      0.00000000	    -18.32294181	     -8.59000265	     -3.60958813	     30.75254510	     35.90474552	      0.00000000	      5.00000014	     16.10033383	    -10.23378707	    152.19786328	      0.34824171	      4.31700599	      0.00000000	      5.00000014
     15.16666667	      3.78536883	      2.84484221	    181.24343142	     -1.15517968	      0.87962842	      0.82057510	     14.92607726	      2.24873529	    -24.31490518	     16.69065086	      0.29130681	     12.67711670	     14.19618905	      0.00000000	     13.60029188	     -7.41515754	     -2.30897752	     69.62421437	      1.21517178	     -1.82305551	    -19.25186077	      0.00000000	     -0.00041638	      0.34759327	     -0.46447439	     -0.00077326	      0.46229905	     -0.49350404	     -0.00068407	      0.84513829	     -0.49350404	     -0.00047588	      0.84513829	     -0.40641509	     -0.00038665	      0.70881221	     -0.37738544	     -0.00023792	      0.53842198	     -0.34835579	     -0.00297416	      3.93204464	     -2.58326720	      0.00000000	      0.00000000	      0.00000000	      0.00000000	      0.00000000	    -16.30730296	     -9.95420950	      0.64394565	     30.35126078	     36.61192588	      0.00000000	      5.00000014	     12.42360348	     -9.82135823	    144.71650943	      0.37051239	      4.75543175	      0.00000000	      5.00000014
     15.20000000	      3.31274795	      2.63605521	    179.82450184	     -1.19322478	      0.88422347	      0.81918590	     10.53159419	      3.22571735	    -20.12740858	     14.21126857	      0.24803343	     14.15787545	     12.25430726	      0.00000000	     18.41392034	     -8.47348779	     -2.67748432	     72.85406261	      1.27154327	     -0.14326650	    -19.33505430	      0.00000000	      0.00123621	      0.32831344	     -0.13498861	      0.00229576	      0.43665687	     -0.14342540	      0.00203097	      0.79826130	     -0.14342540	      0.00141286	      0.79826130	     -0.11811504	      0.00114794	      0.66949677	     -0.10967825	      0.00070637	      0.50855752	     -0.10124146	      0.00883012	      3.71394729	     -0.75076618	      0.00000000	      0.00000000	      0.00000000	      0.00000000	      0.00000000	    -12.86889994	    -12.17197202	      7.35451874	     29.17164762	     38.03190715	      0.00000000	      5.00000014	      8.67073604	     -9.36262833	    137.00850465	      0.39359330	      4.92066095	      0.00000000	      5.00000014
     15.23333333	      2.91008647	      2.54526244	    178.83604751	     -1.22822169	      0.88719472	      0.81961299	      6.38995810	      3.88918909	    -16.43471423	     11.73184104	      0.20475925	     15.21562976	      9.70219137	      0.00000000	     23.00773958	     -9.70655374	     -3.53391824	     72.98957804	      1.27390846	      4.50029678	    -19.33152977	      0.00000000	      0.00155064	      0.32081645	      0.07190783	      0.00287969	      0.42668588	      0.07640206	      0.00254754	      0.78003312	      0.07640206	      0.00177222	      0.78003312	      0.06291935	      0.00143992	      0.65420891	      0.05842511	      0.00088603	      0.49694468	      0.05393087	      0.01107605	      3.62913986	      0.39992975	      0.00000000	      0.00000000	      0.00000000	      0.00000000	      0.00000000	     -7.92615807	    -15.20654095	     17.55285177	     27.61439933	     40.37932862	      0.00000000	      5.00000014	      5.20861797	     -8.98643782	    131.66133677	      0.42082130	      5.12117644	      0.00000000	      5.00000014
     15.26666667	      2.71112552	      2.62123229	    178.29697280	     -1.25996990	      0.88829658	      0.82160160	      2.96107011	      4.33033707	    -14.13834340	      9.78790379	      0.17083115	     16.04941809	      7.49068333	      0.00000000	     27.20441414	    -10.89495795	     -4.87263782	     69.56483951	      1.21413549	     10.36440408	    -19.19001385	      0.00000000	      0.00130065	      0.33105005	      0.14970686	      0.00241543	      0.44029656	      0.15906354	      0.00213683	      0.80491509	      0.15906354	      0.00148651	      0.80491509	      0.13099351	      0.00120778	      0.67507726	      0.12163683	      0.00074319	      0.51279652	      0.11228015	      0.00929040	      3.74490435	      0.83262467	      0.00000000	      0.00000000	      0.00000000	      0.00000000	      0.00000000	     -1.82556404	    -18.50149511	     30.18145264	     26.50910792	     43.25489437	      0.00000000	      5.00000014	      2.30975291	     -8.82056193	    129.29893233	      0.47375752	      5.68137416	      0.00000000	      5.00000014
     15.30000000	      2.80214034	      2.64674774	    178.10141293	     -1.28889533	      0.88761078	      0.82424158	      0.59228098	      4.47551142	    -13.21018056	      8.90933981	      0.15549731	     17.19635505	      5.80798985	      0.00000000	     30.70173612	    -11.51134803	     -6.60641795	     62.58924890	      1.09238847	     14.66370006	    -18.71440872	      0.00000000	     -0.00175965	      0.32827582	      0.14139357	     -0.00326784	      0.43660683	      0.15023067	     -0.00289092	      0.79816982	      0.15023067	     -0.00201110	      0.79816982	      0.12371938	     -0.00163401	      0.66942004	      0.11488228	     -0.00100546	      0.50849924	      0.10604518	     -0.01256897	      3.71352168	      0.78638863	      0.00000000	      0.00000000	      0.00000000	      0.00000000	      0.00000000	      4.99307232	    -21.07266818	     43.03467321	     25.75657870	     45.74902752	      0.00000000	      5.00000014	      0.14561068	     -9.06718941	    129.74025001	      0.57901095	      6.66678850	      0.00000000	      5.00000014
     15.33333333	      3.15966412	      2.75698674	    178.10460850	     -1.31665390	      0.88524719	      0.82696919	     -1.01782393	      4.52038756	    -13.98683802	      8.77829150	      0.15321009	     18.81815154	      5.95497871	      0.00000000	     32.99160491	    -11.66523455	     -8.71626874	     52.82245752	      0.92192580	     16.48263115	    -16.54901526	      0.00000000	     -0.00514096	      0.32813220	      0.13250461	     -0.00954728	      0.43641582	      0.14078615	     -0.00844609	      0.79782063	      0.14078615	     -0.00587561	      0.79782063	      0.11594153	     -0.00477390	      0.66912718	      0.10766000	     -0.00293755	      0.50827677	      0.09937846	     -0.03672139	      3.71189705	      0.73695089	      0.00000000	      0.00000000	      0.00000000	      0.00000000	      0.00000000	     10.86644365	    -22.87677399	     51.61209439	     26.29844521	     46.79802837	      0.00000000	      5.00000014	     -1.23847510	     -9.66225650	    132.33745878	      0.77279467	      8.06341797	      0.00000000	      5.00000014
